<!-- Generator: Adobe Illustrator 19.0.0, SVG Export Plug-In . SVG Version: 6.00 Build 0)  -->
<svg version="1.1" id="Layer_1" xmlns="http://www.w3.org/2000/svg" xmlns:xlink="http://www.w3.org/1999/xlink" x="0px" y="0px"
	 viewBox="0 0 512 512" style="enable-background:new 0 0 512 512;" xml:space="preserve">
<rect x="304.027" y="7.874" style="fill:#FBB049;" width="96.047" height="24.012"/>
<path style="fill:#5A5A28;" d="M380.274,79.346l43.813,160.646v264.134H280.013V239.991l43.812-160.646
	c2.122-7.778-3.734-15.444-11.796-15.444l0,0V31.886h80.041v32.016l0,0C384.008,63.902,378.153,71.568,380.274,79.346z"/>
<path style="fill:#7B7B53;" d="M312.03,31.886v32.016l0,0c8.063,0,13.917,7.666,11.796,15.444l-43.812,160.646v264.134h71.575
	l0.462-472.24H312.03V31.886z"/>
<rect x="280.018" y="239.987" style="fill:#FFFFFF;" width="144.076" height="96.047"/>
<polyline style="fill:#FA9C1C;" points="231.989,231.988 215.981,504.126 103.924,504.126 87.916,223.984 "/>
<path style="fill:#FFFFFF;" d="M183.964,183.963c-6.066,0-11.846,1.172-17.189,3.223c-8.344-7-19.092-11.228-30.835-11.228
	c-26.524,0-48.025,21.501-48.025,48.025c0,20.901,13.376,38.633,32.016,45.233v22.802c0,15.472,12.542,28.014,28.014,28.014
	s28.014-12.542,28.014-28.014v-12.726c2.608,0.439,5.271,0.72,8.004,0.72c26.524,0,48.025-21.501,48.025-48.025
	S210.487,183.963,183.964,183.963z"/>
<polyline style="fill:#FBB049;" points="215.981,504.126 103.924,504.126 87.916,223.984 "/>
<g>
	<rect x="143.941" y="464.238" style="fill:#1D1D1B;" width="16.008" height="15.747"/>
	<rect x="304.027" style="fill:#1D1D1B;" width="96.047" height="15.747"/>
	<path style="fill:#1D1D1B;" d="M239.862,231.988c0-30.823-25.076-55.898-55.898-55.898c-5.315,0-10.586,0.768-15.724,2.291
		c-9.409-6.666-20.716-10.294-32.301-10.294c-30.823,0-55.898,25.076-55.898,55.898C80.041,226.033,96.486,512,96.486,512h126.917
		L239.862,231.988z M135.94,183.833c9.406,0,18.56,3.333,25.775,9.386l3.554,2.98l4.329-1.663c4.665-1.791,9.499-2.7,14.367-2.7
		c22.084,0,40.058,17.922,40.147,39.986l-0.292,4.954c-2.376,19.889-19.338,35.362-39.856,35.362c-2.062,0-4.253-0.199-6.699-0.611
		l-9.179-1.542v22.033c0,11.106-9.035,20.141-20.141,20.141c-11.106,0-20.141-9.036-20.141-20.141v-28.366l-5.246-1.857
		c-14.5-5.134-24.692-18.081-26.487-33.065l-0.279-4.895C95.874,201.764,113.851,183.833,135.94,183.833z M111.361,496.253
		l-0.93-16.269h25.509v-15.747h-26.409l-11.38-199.138c4.089,3.759,8.758,6.942,13.907,9.378v17.542
		c0,19.789,16.1,35.888,35.888,35.888s35.888-16.1,35.888-35.888v-4.132c0.043,0,0.087,0,0.13,0
		c14.521,0,27.764-5.569,37.712-14.678l-13.119,223.044H111.361z"/>
	<path style="fill:#1D1D1B;" d="M387.87,77.275c-0.492-1.808,0.253-3.149,0.741-3.789c0.488-0.638,1.586-1.71,3.459-1.71h7.874
		V24.012h-95.787v47.763h7.874c1.873,0,2.971,1.072,3.459,1.711c0.488,0.639,1.234,1.981,0.741,3.788l-44.092,161.663V512h159.82
		V238.937L387.87,77.275z M331.422,81.418c1.663-6.094,0.416-12.47-3.418-17.49c-2.159-2.826-4.948-4.974-8.1-6.311V39.76h64.293
		v17.857c-3.153,1.337-5.941,3.485-8.1,6.311c-3.834,5.02-5.081,11.395-3.418,17.49l41.099,150.701H290.322L331.422,81.418z
		 M416.213,247.866v80.301H287.886v-80.301L416.213,247.866L416.213,247.866z M287.886,496.253V343.914h128.326v152.338H287.886z"/>
</g>
<rect x="304.027" y="464.238" style="fill:#FFFFFF;" width="96.047" height="15.747"/>
<g>
	<rect x="304.027" y="264.133" style="fill:#1D1D1B;" width="96.047" height="15.747"/>
	<rect x="312.026" y="296.152" style="fill:#1D1D1B;" width="16.008" height="15.747"/>
	<rect x="344.046" y="296.152" style="fill:#1D1D1B;" width="16.008" height="15.747"/>
	<rect x="376.065" y="296.152" style="fill:#1D1D1B;" width="16.008" height="15.747"/>
</g>
<g>
</g>
<g>
</g>
<g>
</g>
<g>
</g>
<g>
</g>
<g>
</g>
<g>
</g>
<g>
</g>
<g>
</g>
<g>
</g>
<g>
</g>
<g>
</g>
<g>
</g>
<g>
</g>
<g>
</g>
</svg>
